<svg xmlns="http://www.w3.org/2000/svg" xmlns:xlink="http://www.w3.org/1999/xlink" xmlns:lucid="lucid" width="1760" height="1360"><g transform="translate(0 0)" lucid:page-tab-id="HWEp-vi-RSFO"><path d="M0 0h1760v1360H0z" fill="#fff"/><path d="M520 166h187.52v454H200V140h305zm-320 0h320" stroke="#333" stroke-width="2" fill="#fff"/><use xlink:href="#a" transform="matrix(1,0,0,1,208,140) translate(109.57499999999999 16.6)"/><path d="M340 416h200v162H340z" stroke="#333" stroke-width="2" fill="#fff"/><path d="M340 453.6h200" stroke="#333" stroke-width="2" fill="none"/><use xlink:href="#b" transform="matrix(1,0,0,1,348,424) translate(58.574999999999996 14.4)"/><use xlink:href="#c" transform="matrix(1,0,0,1,352,461.6) translate(0 14.4)"/><use xlink:href="#d" transform="matrix(1,0,0,1,352,461.6) translate(10.95 14.4)"/><use xlink:href="#e" transform="matrix(1,0,0,1,352,461.6) translate(58.80000000000001 14.4)"/><use xlink:href="#f" transform="matrix(1,0,0,1,352,461.6) translate(68.80000000000001 14.4)"/><use xlink:href="#c" transform="matrix(1,0,0,1,352,461.6) translate(0 36)"/><use xlink:href="#g" transform="matrix(1,0,0,1,352,461.6) translate(10.95 36)"/><use xlink:href="#e" transform="matrix(1,0,0,1,352,461.6) translate(64.95 36)"/><use xlink:href="#f" transform="matrix(1,0,0,1,352,461.6) translate(74.95 36)"/><use xlink:href="#c" transform="matrix(1,0,0,1,352,461.6) translate(0 57.6)"/><use xlink:href="#h" transform="matrix(1,0,0,1,352,461.6) translate(10.95 57.6)"/><use xlink:href="#e" transform="matrix(1,0,0,1,352,461.6) translate(60.900000000000006 57.6)"/><use xlink:href="#f" transform="matrix(1,0,0,1,352,461.6) translate(70.9 57.6)"/><use xlink:href="#c" transform="matrix(1,0,0,1,352,461.6) translate(0 79.20000000000002)"/><use xlink:href="#i" transform="matrix(1,0,0,1,352,461.6) translate(10.95 79.20000000000002)"/><use xlink:href="#f" transform="matrix(1,0,0,1,352,461.6) translate(84.9 79.20000000000002)"/><use xlink:href="#c" transform="matrix(1,0,0,1,352,461.6) translate(0 100.80000000000001)"/><use xlink:href="#j" transform="matrix(1,0,0,1,352,461.6) translate(10.95 100.80000000000001)"/><use xlink:href="#e" transform="matrix(1,0,0,1,352,461.6) translate(90.9 100.80000000000001)"/><use xlink:href="#k" transform="matrix(1,0,0,1,352,461.6) translate(100.9 100.80000000000001)"/><path d="M220 220h220v75H220z" stroke="#333" stroke-width="2" fill="#fff"/><path d="M220 257.6h220" stroke="#333" stroke-width="2" fill="none"/><use xlink:href="#l" transform="matrix(1,0,0,1,228,228.00000000000003) translate(45.05 14.4)"/><use xlink:href="#c" transform="matrix(1,0,0,1,232,265.6) translate(0 14.4)"/><use xlink:href="#m" transform="matrix(1,0,0,1,232,265.6) translate(10.95 14.4)"/><use xlink:href="#e" transform="matrix(1,0,0,1,232,265.6) translate(145.8 14.4)"/><use xlink:href="#n" transform="matrix(1,0,0,1,232,265.6) translate(155.8 14.4)"/><path d="M487.52 220h220v118h-220z" stroke="#333" stroke-width="2" fill="#fff"/><path d="M487.52 257.6h220" stroke="#333" stroke-width="2" fill="none"/><use xlink:href="#o" transform="matrix(1,0,0,1,495.52123248085377,228) translate(81.525 14.4)"/><use xlink:href="#c" transform="matrix(1,0,0,1,499.52123248085377,265.6) translate(0 14.4)"/><use xlink:href="#p" transform="matrix(1,0,0,1,499.52123248085377,265.6) translate(10.95 14.4)"/><use xlink:href="#e" transform="matrix(1,0,0,1,499.52123248085377,265.6) translate(101.85000000000001 14.4)"/><use xlink:href="#f" transform="matrix(1,0,0,1,499.52123248085377,265.6) translate(111.85000000000001 14.4)"/><use xlink:href="#c" transform="matrix(1,0,0,1,499.52123248085377,265.6) translate(0 36)"/><use xlink:href="#q" transform="matrix(1,0,0,1,499.52123248085377,265.6) translate(10.95 36)"/><use xlink:href="#e" transform="matrix(1,0,0,1,499.52123248085377,265.6) translate(92.85000000000001 36)"/><use xlink:href="#f" transform="matrix(1,0,0,1,499.52123248085377,265.6) translate(102.85000000000001 36)"/><use xlink:href="#c" transform="matrix(1,0,0,1,499.52123248085377,265.6) translate(0 57.6)"/><use xlink:href="#r" transform="matrix(1,0,0,1,499.52123248085377,265.6) translate(10.95 57.6)"/><use xlink:href="#e" transform="matrix(1,0,0,1,499.52123248085377,265.6) translate(130.9 57.6)"/><use xlink:href="#n" transform="matrix(1,0,0,1,499.52123248085377,265.6) translate(140.9 57.6)"/><path d="M1245 166h215v434H880V140h348zm-365 0h365" stroke="#333" stroke-width="2" fill="#fff"/><use xlink:href="#s" transform="matrix(1,0,0,1,888,140) translate(129.05 16.6)"/><path d="M940 220h200v183H940z" stroke="#333" stroke-width="2" fill="#fff"/><path d="M940 257.6h200" stroke="#333" stroke-width="2" fill="none"/><use xlink:href="#t" transform="matrix(1,0,0,1,948,228) translate(34.599999999999994 14.4)"/><use xlink:href="#c" transform="matrix(1,0,0,1,952,265.6) translate(0 14.4)"/><use xlink:href="#h" transform="matrix(1,0,0,1,952,265.6) translate(10.95 14.4)"/><use xlink:href="#e" transform="matrix(1,0,0,1,952,265.6) translate(60.900000000000006 14.4)"/><use xlink:href="#f" transform="matrix(1,0,0,1,952,265.6) translate(70.9 14.4)"/><use xlink:href="#c" transform="matrix(1,0,0,1,952,265.6) translate(0 36)"/><use xlink:href="#q" transform="matrix(1,0,0,1,952,265.6) translate(10.95 36)"/><use xlink:href="#e" transform="matrix(1,0,0,1,952,265.6) translate(92.85000000000001 36)"/><use xlink:href="#f" transform="matrix(1,0,0,1,952,265.6) translate(102.85000000000001 36)"/><use xlink:href="#c" transform="matrix(1,0,0,1,952,265.6) translate(0 57.6)"/><use xlink:href="#u" transform="matrix(1,0,0,1,952,265.6) translate(10.95 57.6)"/><use xlink:href="#e" transform="matrix(1,0,0,1,952,265.6) translate(92.85000000000001 57.6)"/><use xlink:href="#v" transform="matrix(1,0,0,1,952,265.6) translate(102.85000000000001 57.6)"/><use xlink:href="#c" transform="matrix(1,0,0,1,952,265.6) translate(0 79.20000000000002)"/><use xlink:href="#w" transform="matrix(1,0,0,1,952,265.6) translate(10.95 79.20000000000002)"/><use xlink:href="#v" transform="matrix(1,0,0,1,952,265.6) translate(85.80000000000001 79.20000000000002)"/><use xlink:href="#c" transform="matrix(1,0,0,1,952,265.6) translate(0 100.80000000000001)"/><use xlink:href="#x" transform="matrix(1,0,0,1,952,265.6) translate(10.95 100.80000000000001)"/><use xlink:href="#e" transform="matrix(1,0,0,1,952,265.6) translate(63.95 100.80000000000001)"/><use xlink:href="#f" transform="matrix(1,0,0,1,952,265.6) translate(73.95 100.80000000000001)"/><use xlink:href="#c" transform="matrix(1,0,0,1,952,265.6) translate(0 122.4)"/><use xlink:href="#j" transform="matrix(1,0,0,1,952,265.6) translate(10.95 122.4)"/><use xlink:href="#e" transform="matrix(1,0,0,1,952,265.6) translate(90.9 122.4)"/><use xlink:href="#k" transform="matrix(1,0,0,1,952,265.6) translate(100.9 122.4)"/><path d="M1240 220h200v140h-200z" stroke="#333" stroke-width="2" fill="#fff"/><path d="M1240 257.6h200" stroke="#333" stroke-width="2" fill="none"/><use xlink:href="#y" transform="matrix(1,0,0,1,1248,228.00000000000003) translate(62.074999999999996 14.4)"/><use xlink:href="#c" transform="matrix(1,0,0,1,1252,265.6) translate(0 14.4)"/><use xlink:href="#h" transform="matrix(1,0,0,1,1252,265.6) translate(10.95 14.4)"/><use xlink:href="#e" transform="matrix(1,0,0,1,1252,265.6) translate(60.900000000000006 14.4)"/><use xlink:href="#f" transform="matrix(1,0,0,1,1252,265.6) translate(70.9 14.4)"/><use xlink:href="#c" transform="matrix(1,0,0,1,1252,265.6) translate(0 36)"/><use xlink:href="#q" transform="matrix(1,0,0,1,1252,265.6) translate(10.95 36)"/><use xlink:href="#e" transform="matrix(1,0,0,1,1252,265.6) translate(92.85000000000001 36)"/><use xlink:href="#f" transform="matrix(1,0,0,1,1252,265.6) translate(102.85000000000001 36)"/><use xlink:href="#c" transform="matrix(1,0,0,1,1252,265.6) translate(0 57.6)"/><use xlink:href="#z" transform="matrix(1,0,0,1,1252,265.6) translate(10.95 57.6)"/><use xlink:href="#e" transform="matrix(1,0,0,1,1252,265.6) translate(109.75000000000001 57.6)"/><use xlink:href="#v" transform="matrix(1,0,0,1,1252,265.6) translate(119.75000000000001 57.6)"/><use xlink:href="#c" transform="matrix(1,0,0,1,1252,265.6) translate(0 79.20000000000002)"/><use xlink:href="#A" transform="matrix(1,0,0,1,1252,265.6) translate(10.95 79.20000000000002)"/><use xlink:href="#e" transform="matrix(1,0,0,1,1252,265.6) translate(102.80000000000001 79.20000000000002)"/><use xlink:href="#B" transform="matrix(1,0,0,1,1252,265.6) translate(112.80000000000001 79.20000000000002)"/><use xlink:href="#C" transform="matrix(1,0,0,1,1252,265.6) translate(169.70000000000002 79.20000000000002)"/><path d="M940 438h180v118H940z" stroke="#333" stroke-width="2" fill="#fff"/><path d="M940 475.6h180" stroke="#333" stroke-width="2" fill="none"/><use xlink:href="#D" transform="matrix(1,0,0,1,948,446) translate(38.29999999999999 14.4)"/><use xlink:href="#c" transform="matrix(1,0,0,1,952,483.6) translate(0 14.4)"/><use xlink:href="#h" transform="matrix(1,0,0,1,952,483.6) translate(10.95 14.4)"/><use xlink:href="#e" transform="matrix(1,0,0,1,952,483.6) translate(60.900000000000006 14.4)"/><use xlink:href="#f" transform="matrix(1,0,0,1,952,483.6) translate(70.9 14.4)"/><use xlink:href="#c" transform="matrix(1,0,0,1,952,483.6) translate(0 36)"/><use xlink:href="#d" transform="matrix(1,0,0,1,952,483.6) translate(10.95 36)"/><use xlink:href="#e" transform="matrix(1,0,0,1,952,483.6) translate(58.80000000000001 36)"/><use xlink:href="#f" transform="matrix(1,0,0,1,952,483.6) translate(68.80000000000001 36)"/><use xlink:href="#E" transform="matrix(1,0,0,1,952,483.6) translate(0 57.6)"/><path d="M1220 438h220v118h-220z" stroke="#333" stroke-width="2" fill="#fff"/><path d="M1220 475.6h220" stroke="#333" stroke-width="2" fill="none"/><use xlink:href="#F" transform="matrix(1,0,0,1,1228,446) translate(69.1 14.4)"/><use xlink:href="#c" transform="matrix(1,0,0,1,1232,483.6) translate(0 14.4)"/><use xlink:href="#G" transform="matrix(1,0,0,1,1232,483.6) translate(10.95 14.4)"/><use xlink:href="#e" transform="matrix(1,0,0,1,1232,483.6) translate(138.65 14.4)"/><use xlink:href="#f" transform="matrix(1,0,0,1,1232,483.6) translate(148.65 14.4)"/><use xlink:href="#c" transform="matrix(1,0,0,1,1232,483.6) translate(0 36)"/><use xlink:href="#x" transform="matrix(1,0,0,1,1232,483.6) translate(10.95 36)"/><use xlink:href="#e" transform="matrix(1,0,0,1,1232,483.6) translate(63.95 36)"/><use xlink:href="#f" transform="matrix(1,0,0,1,1232,483.6) translate(73.95 36)"/><use xlink:href="#E" transform="matrix(1,0,0,1,1232,483.6) translate(0 57.6)"/><path d="M500 706.83h187.52V980H180V680.83h305zm-320 0h320" stroke="#333" stroke-width="2" fill="#fff"/><use xlink:href="#H" transform="matrix(1,0,0,1,188,680.8328947002899) translate(85.57499999999999 16.6)"/><path d="M200 774h220v140H200z" stroke="#333" stroke-width="2" fill="#fff"/><path d="M200 811.6h220" stroke="#333" stroke-width="2" fill="none"/><use xlink:href="#I" transform="matrix(1,0,0,1,208,782.0126382998183) translate(55.574999999999996 14.4)"/><use xlink:href="#c" transform="matrix(1,0,0,1,212,819.6126382998183) translate(0 14.4)"/><use xlink:href="#J" transform="matrix(1,0,0,1,212,819.6126382998183) translate(10.95 14.4)"/><use xlink:href="#e" transform="matrix(1,0,0,1,212,819.6126382998183) translate(96.85000000000001 14.4)"/><use xlink:href="#f" transform="matrix(1,0,0,1,212,819.6126382998183) translate(106.85000000000001 14.4)"/><use xlink:href="#c" transform="matrix(1,0,0,1,212,819.6126382998183) translate(0 36)"/><use xlink:href="#K" transform="matrix(1,0,0,1,212,819.6126382998183) translate(10.95 36)"/><use xlink:href="#e" transform="matrix(1,0,0,1,212,819.6126382998183) translate(108.80000000000001 36)"/><use xlink:href="#f" transform="matrix(1,0,0,1,212,819.6126382998183) translate(118.80000000000001 36)"/><use xlink:href="#c" transform="matrix(1,0,0,1,212,819.6126382998183) translate(0 57.6)"/><use xlink:href="#r" transform="matrix(1,0,0,1,212,819.6126382998183) translate(10.95 57.6)"/><use xlink:href="#e" transform="matrix(1,0,0,1,212,819.6126382998183) translate(130.9 57.6)"/><use xlink:href="#v" transform="matrix(1,0,0,1,212,819.6126382998183) translate(140.9 57.6)"/><use xlink:href="#c" transform="matrix(1,0,0,1,212,819.6126382998183) translate(0 79.20000000000002)"/><use xlink:href="#L" transform="matrix(1,0,0,1,212,819.6126382998183) translate(10.95 79.20000000000002)"/><use xlink:href="#e" transform="matrix(1,0,0,1,212,819.6126382998183) translate(89.95 79.20000000000002)"/><use xlink:href="#k" transform="matrix(1,0,0,1,212,819.6126382998183) translate(99.95 79.20000000000002)"/><path d="M460 774h220v118H460z" stroke="#333" stroke-width="2" fill="#fff"/><path d="M460 811.6h220" stroke="#333" stroke-width="2" fill="none"/><g><use xlink:href="#M" transform="matrix(1,0,0,1,468,782.0126382998183) translate(53.62499999999999 14.4)"/></g><g><use xlink:href="#c" transform="matrix(1,0,0,1,472,819.6126382998183) translate(0 14.4)"/><use xlink:href="#N" transform="matrix(1,0,0,1,472,819.6126382998183) translate(10.95 14.4)"/><use xlink:href="#e" transform="matrix(1,0,0,1,472,819.6126382998183) translate(44.900000000000006 14.4)"/><use xlink:href="#f" transform="matrix(1,0,0,1,472,819.6126382998183) translate(54.900000000000006 14.4)"/><use xlink:href="#c" transform="matrix(1,0,0,1,472,819.6126382998183) translate(0 36)"/><use xlink:href="#L" transform="matrix(1,0,0,1,472,819.6126382998183) translate(10.95 36)"/><use xlink:href="#e" transform="matrix(1,0,0,1,472,819.6126382998183) translate(89.95 36)"/><use xlink:href="#f" transform="matrix(1,0,0,1,472,819.6126382998183) translate(99.95 36)"/><use xlink:href="#c" transform="matrix(1,0,0,1,472,819.6126382998183) translate(0 57.6)"/><use xlink:href="#r" transform="matrix(1,0,0,1,472,819.6126382998183) translate(10.95 57.6)"/><use xlink:href="#e" transform="matrix(1,0,0,1,472,819.6126382998183) translate(130.9 57.6)"/><use xlink:href="#n" transform="matrix(1,0,0,1,472,819.6126382998183) translate(140.9 57.6)"/></g><path d="M1258 706.83h222V1140H880V680.83h360zm-378 0h378" stroke="#333" stroke-width="2" fill="#fff"/><g><use xlink:href="#O" transform="matrix(1,0,0,1,888,680.8328947002899) translate(116.025 16.6)"/></g><path d="M900 760.67h220v97H900z" stroke="#333" stroke-width="2" fill="#fff"/><path d="M900 798.27h220" stroke="#333" stroke-width="2" fill="none"/><g><use xlink:href="#P" transform="matrix(1,0,0,1,908,768.6657894005797) translate(77.6 14.4)"/></g><g><use xlink:href="#c" transform="matrix(1,0,0,1,912,806.2657894005797) translate(0 14.4)"/><use xlink:href="#d" transform="matrix(1,0,0,1,912,806.2657894005797) translate(10.95 14.4)"/><use xlink:href="#e" transform="matrix(1,0,0,1,912,806.2657894005797) translate(58.80000000000001 14.4)"/><use xlink:href="#f" transform="matrix(1,0,0,1,912,806.2657894005797) translate(68.80000000000001 14.4)"/><use xlink:href="#c" transform="matrix(1,0,0,1,912,806.2657894005797) translate(0 36)"/><use xlink:href="#g" transform="matrix(1,0,0,1,912,806.2657894005797) translate(10.95 36)"/><use xlink:href="#e" transform="matrix(1,0,0,1,912,806.2657894005797) translate(64.95 36)"/><use xlink:href="#k" transform="matrix(1,0,0,1,912,806.2657894005797) translate(74.95 36)"/></g><path d="M1160 760h220v75h-220z" stroke="#333" stroke-width="2" fill="#fff"/><path d="M1160 797.6h220" stroke="#333" stroke-width="2" fill="none"/><g><use xlink:href="#Q" transform="matrix(1,0,0,1,1168,768) translate(18.650000000000006 14.4)"/></g><g><use xlink:href="#c" transform="matrix(1,0,0,1,1172,805.6) translate(0 14.4)"/><use xlink:href="#d" transform="matrix(1,0,0,1,1172,805.6) translate(10.95 14.4)"/><use xlink:href="#e" transform="matrix(1,0,0,1,1172,805.6) translate(58.80000000000001 14.4)"/><use xlink:href="#k" transform="matrix(1,0,0,1,1172,805.6) translate(68.80000000000001 14.4)"/></g><path d="M938.5 497H564" stroke="#333" fill="none"/><path d="M939 497.48h-.5v-.96h.5z" stroke="#333" stroke-width=".05" fill="#333"/><path d="M541.98 497l21.52-12.73v25.46z" stroke="#333" fill="#fff"/><path d="M900 900h200v162H900z" stroke="#333" stroke-width="2" fill="#fff"/><path d="M900 937.6h200" stroke="#333" stroke-width="2" fill="none"/><g><use xlink:href="#R" transform="matrix(1,0,0,1,908,908) translate(19.674999999999997 14.4)"/></g><g><use xlink:href="#c" transform="matrix(1,0,0,1,912,945.6) translate(0 14.4)"/><use xlink:href="#d" transform="matrix(1,0,0,1,912,945.6) translate(10.95 14.4)"/><use xlink:href="#e" transform="matrix(1,0,0,1,912,945.6) translate(58.80000000000001 14.4)"/><use xlink:href="#f" transform="matrix(1,0,0,1,912,945.6) translate(68.80000000000001 14.4)"/><use xlink:href="#c" transform="matrix(1,0,0,1,912,945.6) translate(0 36)"/><use xlink:href="#g" transform="matrix(1,0,0,1,912,945.6) translate(10.95 36)"/><use xlink:href="#e" transform="matrix(1,0,0,1,912,945.6) translate(64.95 36)"/><use xlink:href="#f" transform="matrix(1,0,0,1,912,945.6) translate(74.95 36)"/><use xlink:href="#c" transform="matrix(1,0,0,1,912,945.6) translate(0 57.6)"/><use xlink:href="#h" transform="matrix(1,0,0,1,912,945.6) translate(10.95 57.6)"/><use xlink:href="#e" transform="matrix(1,0,0,1,912,945.6) translate(60.900000000000006 57.6)"/><use xlink:href="#f" transform="matrix(1,0,0,1,912,945.6) translate(70.9 57.6)"/><use xlink:href="#c" transform="matrix(1,0,0,1,912,945.6) translate(0 79.20000000000002)"/><use xlink:href="#i" transform="matrix(1,0,0,1,912,945.6) translate(10.95 79.20000000000002)"/><use xlink:href="#f" transform="matrix(1,0,0,1,912,945.6) translate(84.9 79.20000000000002)"/><use xlink:href="#c" transform="matrix(1,0,0,1,912,945.6) translate(0 100.80000000000001)"/><use xlink:href="#j" transform="matrix(1,0,0,1,912,945.6) translate(10.95 100.80000000000001)"/><use xlink:href="#e" transform="matrix(1,0,0,1,912,945.6) translate(90.9 100.80000000000001)"/><use xlink:href="#k" transform="matrix(1,0,0,1,912,945.6) translate(100.9 100.80000000000001)"/></g><path d="M589.4 446.98h-18.02v-.95h18zm329.08-12.46l-.16 1.94-.45 1.9-.75 1.8-1.03 1.68-1.28 1.5-1.5 1.26-1.66 1.02-1.8.75-1.9.46-1.94.15H599.4v-.95h306.58l1.82-.14 1.76-.44 1.67-.7 1.54-.93 1.38-1.18 1.17-1.37.95-1.54.7-1.68.4-1.75.15-1.8V276.1h.96zm20.02-183.54h-8.48l-1.82.14-1.76.42-1.67.7-1.54.94-1.38 1.17-.14.18h-1.24l.72-.85 1.5-1.27 1.66-1 1.8-.76 1.9-.46 1.94-.15h8.52z" stroke="#333" stroke-width=".05" fill="#333"/><path d="M939 250.98h-.5v-.95h.5z" fill="#333"/><path stroke="#333" stroke-width=".05" fill="#333"/><path d="M571.7 446.5l-15.14 14.85-14.85-14.85 14.86-14.85z" fill="#fff"/><path d="M572.4 446.5l-15.85 15.52-15.5-15.52 15.5-15.5zm-30.02 0l14.18 14.18 14.47-14.18-14.47-14.18z" stroke="#333" stroke-width=".05" fill="#333"/><g><use xlink:href="#S" transform="matrix(1,0,0,1,913,254.52613278028724) translate(0.004999999999999893 14.4)"/></g><g><use xlink:href="#T" transform="matrix(1,0,0,1,589.389828183772,435.70344379814827) translate(0.004999999999999893 14.4)"/></g><path d="M1223.8 290.48h-44.84v-.96h44.84zm14.7 0h-4.7v-.96h4.7z" stroke="#333" stroke-width=".05" fill="#333"/><path d="M1239 290.48h-.5v-.96h.5z" fill="#333"/><path stroke="#333" stroke-width=".05" fill="#333"/><path d="M1168.96 287.3v5.4l-12.4 12.15L1141.7 290l14.86-14.85z" fill="#333"/><path d="M1168.96 286.64v1.33l-12.4-12.15-14.18 14.18 14.18 14.18 12.4-12.15v1.33l-12.4 12.16-15.52-15.52 15.5-15.52z" stroke="#333" stroke-width=".05" fill="#333"/><g><use xlink:href="#S" transform="matrix(1,0,0,1,1223.8009166193192,279.2) translate(0.004999999999999893 14.4)"/></g><g><use xlink:href="#T" transform="matrix(1,0,0,1,1168.956967385405,279.2) translate(0.004999999999999893 14.4)"/></g><path d="M1143.76 452h-22.26v-.96h22.26zm60.77-118h-12.5l-1.83.13-1.76.42-1.67.7-1.54.94-1.38 1.16-1.17 1.38-.95 1.54-.7 1.67-.4 1.76-.16 1.83v94l-.15 1.93-.45 1.9-.75 1.8-1.03 1.68-1.28 1.5-1.5 1.26-1.66 1.03-1.8.75-1.9.45-1.94.16h-14.26v-.96h14.22l1.82-.15 1.76-.43 1.67-.7 1.54-.94 1.38-1.17 1.17-1.38.95-1.54.7-1.67.4-1.76.16-1.8v-94l.15-1.94.45-1.9.75-1.8 1.03-1.68 1.28-1.5 1.5-1.26 1.66-1.03 1.8-.75 1.9-.46 1.94-.16h12.55zm33.97 0h-23.97v-.96h23.97z" stroke="#333" stroke-width=".05" fill="#333"/><path d="M1121.5 452h-.5v-.96h.5z" fill="#333"/><path stroke="#333" stroke-width=".05" fill="#333"/><path d="M1239 334h-.5v-.96h.5z" fill="#333"/><path stroke="#333" stroke-width=".05" fill="#333"/><g><use xlink:href="#S" transform="matrix(1,0,0,1,1204.5314209425385,322.7105020981264) translate(0.004999999999999893 14.4)"/></g><g><use xlink:href="#S" transform="matrix(1,0,0,1,1143.7583961157688,440.7105020981263) translate(0.004999999999999893 14.4)"/></g><path d="M1157.1 529.64h-5.72v-.94h5.72zm32.6-32.16h-7.68l-1.82.14-1.76.42-1.67.7-1.54.94-1.38 1.17-1.17 1.38-.95 1.54-.7 1.67-.4 1.76-.16 1.82v8.17l-.15 1.92-.45 1.9-.75 1.8-1.03 1.68-1 1.17v-1.46l.22-.26.95-1.54.7-1.67.4-1.76.16-1.82v-8.17l.15-1.93.45-1.9.75-1.8 1.03-1.68 1.28-1.5 1.5-1.26 1.66-1.02 1.8-.75 1.9-.45 1.94-.16h7.73zm28.8 0h-18.8v-.96h18.8z" stroke="#333" stroke-width=".05" fill="#333"/><path d="M1219 497.48h-.5v-.96h.5z" fill="#333"/><path stroke="#333" stroke-width=".05" fill="#333"/><path d="M1151.7 529.17l-15.14 14.85-14.85-14.85 14.86-14.85z" fill="#333"/><path d="M1152.4 529.17l-15.85 15.52-15.5-15.53 15.5-15.52zm-30.02 0l14.18 14.18 14.47-14.18-14.47-14.18z" stroke="#333" stroke-width=".05" fill="#333"/><g><use xlink:href="#S" transform="matrix(1,0,0,1,1189.7087319603995,486.2) translate(0.004999999999999893 14.4)"/></g><g><use xlink:href="#S" transform="matrix(1,0,0,1,1157.0988161996938,518.3699966623607) translate(0.004999999999999893 14.4)"/></g><path d="M372.52 772.5h-.95V756.4h.95zm0-37.72h-.95v-119.2h.95zm0-140.8h-.95V579.5h.95z" stroke="#333" stroke-width=".05" fill="#333"/><path d="M372.52 773h-.95v-.5h.95z" fill="#333"/><path stroke="#333" stroke-width=".05" fill="#333"/><path d="M372.52 579.5h-.95v-.5h.95z" fill="#333"/><path stroke="#333" stroke-width=".05" fill="#333"/><g><use xlink:href="#S" transform="matrix(1,0,0,1,367.0494934516878,734.7812558015894) translate(0.004999999999999893 14.4)"/></g><g><use xlink:href="#S" transform="matrix(1,0,0,1,367.04949345168774,593.9667104712693) translate(0.004999999999999893 14.4)"/></g><path d="M449.48 398.62h-.96v-9.84h.96zm-119-55.14l.14 1.82.42 1.76.7 1.67.94 1.54 1.17 1.38 1.38 1.17 1.54.95 1.67.7 1.76.4 1.82.15h95l1.93.16 1.9.45 1.8.75 1.68 1.03 1.5 1.28 1.26 1.5 1.02 1.66.75 1.8.45 1.9.13 1.64h-.95l-.12-1.48-.42-1.76-.7-1.67-.94-1.54-1.17-1.38-1.38-1.17-1.54-.95-1.67-.7-1.76-.4-1.82-.15h-95l-1.93-.16-1.9-.45-1.8-.75-1.68-1.03-1.5-1.28-1.26-1.5-1.02-1.66-.75-1.8-.45-1.9-.16-1.94v-9.58h.96zm0-31.15h-.96V296.5h.96z" stroke="#333" stroke-width=".05" fill="#333"/><path d="M330.48 296.5h-.96v-.5h.96z" fill="#333"/><path stroke="#333" stroke-width=".05" fill="#333"/><path d="M449 413.38l-4.63-14.26h9.26z" fill="#333"/><path d="M449 414.92l-5.3-16.28h10.6zm-3.98-15.33l3.98 12.25 3.98-12.26z" stroke="#333" stroke-width=".05" fill="#333"/><g><use xlink:href="#T" transform="matrix(1,0,0,1,325,312.3346198106292) translate(0.004999999999999893 14.4)"/></g><path d="M449.48 392h-.96v-3.22h.96zM579 355.98H461.03l-1.82.14-1.76.42-1.67.7-1.54.94-1.38 1.17-1.17 1.38-.95 1.54-.7 1.67-.4 1.76-.13 1.48h-.95l.13-1.63.45-1.9.75-1.8 1.03-1.68 1.28-1.5 1.5-1.26 1.66-1.02 1.8-.75 1.9-.45 1.94-.16H579zm19-12.46l-.16 1.93-.45 1.9-.76 1.8-1.02 1.68-1.28 1.5-1.5 1.26-1.66 1.02-1.8.75-.37.08v-.97l.08-.02 1.67-.7 1.54-.94 1.37-1.17 1.17-1.38.95-1.54.68-1.67.42-1.76.15-1.82v-3.98h.95z" stroke="#333" stroke-width=".05" fill="#333"/><path d="M598 339.5h-.95v-.5h.95z" fill="#333"/><path stroke="#333" stroke-width=".05" fill="#333"/><path d="M449 414.02l-12.73-21.52h25.46z" fill="#fff"/><path d="M449 414.95l-13.56-22.93h27.12zm-11.9-21.98l11.9 20.1 11.9-20.1z" stroke="#333" stroke-width=".05" fill="#333"/><g><use xlink:href="#T" transform="matrix(1,0,0,1,444,367.1785690445433) translate(0.004999999999999893 14.4)"/></g><g><use xlink:href="#T" transform="matrix(1,0,0,1,579.0139458962748,344.7) translate(0.004999999999999893 14.4)"/></g><path d="M570.48 772.5h-.96v-25h.96zM440.48 638l.14 1.82.42 1.76.7 1.67.94 1.54 1.17 1.38 1.38 1.17 1.54.95 1.67.7 1.76.4 1.82.15h106l1.93.16 1.9.45 1.8.75 1.68 1.03 1.5 1.28 1.26 1.5 1.02 1.66.75 1.8.45 1.9.15 1.94v63.9h-.95v-63.86l-.14-1.82-.42-1.76-.7-1.67-.94-1.54-1.17-1.38-1.38-1.17-1.54-.95-1.67-.7-1.76-.4-1.82-.15h-106l-1.93-.16-1.9-.45-1.8-.75-1.68-1.03-1.5-1.28-1.26-1.5-1.02-1.66-.75-1.8-.45-1.9-.16-1.94v-1.7h.96zm0-23.26h-.96v-5.35h.96z" stroke="#333" stroke-width=".05" fill="#333"/><path d="M570.48 773h-.96v-.5h.96z" fill="#333"/><path stroke="#333" stroke-width=".05" fill="#333"/><path d="M454.85 594.56L440 609.7l-14.85-15.14L440 579.7z" fill="#333"/><path d="M455.52 594.55L440 610.4l-15.52-15.85 15.52-15.5zm-29.7 0L440 609.04l14.18-14.47L440 580.38z" stroke="#333" stroke-width=".05" fill="#333"/><g><use xlink:href="#S" transform="matrix(1,0,0,1,565,725.887642412306) translate(0.004999999999999893 14.4)"/></g><g><use xlink:href="#T" transform="matrix(1,0,0,1,435,614.7174750462639) translate(0.004999999999999893 14.4)"/></g><path d="M1010.48 759.17h-.96V747.5h.96zM709.95 557l1.9.47 1.8.75 1.68 1.02 1.5 1.27 1.26 1.5 1.02 1.67.75 1.8.45 1.9.15 1.94V618l.15 1.82.42 1.76.7 1.67.94 1.54 1.17 1.38 1.38 1.17 1.54.95 1.67.7 1.76.4 1.82.15h266l1.93.16 1.9.45 1.8.75 1.68 1.03 1.5 1.28 1.26 1.5 1.02 1.66.75 1.8.45 1.9.15 1.94v83.9h-.95v-83.86l-.14-1.82-.42-1.76-.7-1.67-.94-1.54-1.17-1.38-1.38-1.17-1.54-.95-1.67-.7-1.76-.4-1.82-.15h-266l-1.93-.16-1.9-.45-1.8-.75-1.68-1.03-1.5-1.28-1.26-1.5-1.02-1.66-.75-1.8-.45-1.9-.15-1.94v-48.67l-.15-1.82-.42-1.76-.7-1.67-.94-1.54-1.17-1.38-1.38-1.17-1.54-.93-1.67-.7-1.76-.42-1.82-.14h-133.8v-.94h133.84zm-168.45.8v-.94h22.7v.95z" stroke="#333" stroke-width=".05" fill="#333"/><path d="M1010.48 759.67h-.96v-.52h.96z" fill="#333"/><path stroke="#333" stroke-width=".05" fill="#333"/><path d="M541.5 557.8h-.5v-.94h.5z" fill="#333"/><path stroke="#333" stroke-width=".05" fill="#333"/><g><use xlink:href="#T" transform="matrix(1,0,0,1,1005,725.887642412306) translate(0.004999999999999893 14.4)"/></g><path d="M1270.47 758.5h-.94v-11h.94zM709.95 557l1.9.47 1.8.75 1.68 1.02 1.5 1.27 1.26 1.5 1.02 1.67.75 1.8.45 1.9.15 1.94V618l.15 1.82.42 1.76.7 1.67.94 1.54 1.17 1.38 1.38 1.17 1.54.95 1.67.7 1.76.4 1.82.15h526l1.93.16 1.9.45 1.8.75 1.68 1.03 1.5 1.28 1.26 1.5 1.02 1.66.75 1.8.45 1.9.15 1.94v83.9h-.94v-83.86l-.15-1.82-.42-1.76-.7-1.67-.94-1.54-1.17-1.38-1.38-1.17-1.54-.95-1.67-.7-1.76-.4-1.82-.15h-526l-1.93-.16-1.9-.45-1.8-.75-1.68-1.03-1.5-1.28-1.26-1.5-1.02-1.66-.75-1.8-.45-1.9-.15-1.94v-48.67l-.15-1.82-.42-1.76-.7-1.67-.94-1.54-1.17-1.38-1.38-1.17-1.54-.93-1.67-.7-1.76-.42-1.82-.14h-133.8v-.94h133.84zm-168.45.8v-.94h22.7v.95z" stroke="#333" stroke-width=".05" fill="#333"/><path d="M1270.47 759h-.94v-.5h.94z" fill="#333"/><path stroke="#333" stroke-width=".05" fill="#333"/><path d="M541.5 557.8h-.5v-.94h.5z" fill="#333"/><path stroke="#333" stroke-width=".05" fill="#333"/><g><use xlink:href="#T" transform="matrix(1,0,0,1,564.1912569141358,546.5331057284246) translate(0.004999999999999893 14.4)"/></g><g><use xlink:href="#T" transform="matrix(1,0,0,1,1265,725.887642412306) translate(0.004999999999999893 14.4)"/></g><path d="M618.6 599.68l1.9.45 1.82.75 1.67 1.03 1.48 1.28 1.27 1.5 1.02 1.66.75 1.8.46 1.9.15 1.94v46l.14 1.82.43 1.76.7 1.67.93 1.54 1.18 1.38 1.38 1.17 1.54.95 1.68.7 1.75.4 1.82.15h87.35l1.93.16 1.9.45 1.8.75 1.68 1.03 1.5 1.28 1.26 1.5 1.02 1.66.75 1.8.45 1.9.15 1.94v287l.15 1.82.42 1.76.7 1.67.94 1.54 1.17 1.38 1.38 1.17 1.54.95 1.67.7 1.76.4 1.82.15h105.66v.96h-105.7l-1.93-.16-1.9-.45-1.8-.75-1.68-1.03-1.5-1.28-1.26-1.5-1.02-1.66-.75-1.8-.45-1.9-.15-1.94v-287l-.15-1.82-.42-1.76-.7-1.67-.94-1.54-1.17-1.38-1.38-1.17-1.54-.95-1.67-.7-1.76-.4-1.82-.15h-87.34l-1.94-.16-1.9-.45-1.8-.75-1.68-1.03-1.5-1.28-1.26-1.5-1.02-1.66-.75-1.8-.47-1.9-.15-1.94v-46l-.14-1.82-.42-1.76-.7-1.67-.94-1.54-1.18-1.38-1.37-1.17-1.54-.95-1.68-.7-1.76-.4-1.82-.15H599.4v-.96h17.27zm279.9 380.85v.95h-30.82v-.96zM526.7 600.47v-.96h62.7v.96z" stroke="#333" stroke-width=".05" fill="#333"/><path d="M899 981.48h-.5v-.96h.5z" fill="#333"/><path stroke="#333" stroke-width=".05" fill="#333"/><path d="M537.2 587.15l-7.37 19.9-19.74-7.8 7.5-19.6z" fill="#333"/><path d="M537.82 586.88l-7.7 20.78-20.64-8.13 7.85-20.5zm-27.1 12.1l18.83 7.44 7.05-19-18.73-7.16z" stroke="#333" stroke-width=".05" fill="#333"/><g><use xlink:href="#T" transform="matrix(1,0,0,1,857.680498760487,970.2) translate(0.004999999999999893 14.4)"/></g><g><use xlink:href="#T" transform="matrix(1,0,0,1,589.389828183772,589.2) translate(0.004999999999999893 14.4)"/></g><defs><path d="M232-93c-1 65-40 97-104 97C67 4 28-28 28-90v-158h33c8 89-33 224 67 224 102 0 64-133 71-224h33v155" id="U"/><path d="M135-143c-3-34-86-38-87 0 15 53 115 12 119 90S17 21 10-45l28-5c4 36 97 45 98 0-10-56-113-15-118-90-4-57 82-63 122-42 12 7 21 19 24 35" id="V"/><path d="M84 4C-5 8 30-112 23-190h32v120c0 31 7 50 39 49 72-2 45-101 50-169h31l1 190h-30c-1-10 1-25-2-33-11 22-28 36-60 37" id="W"/><path d="M141-36C126-15 110 5 73 4 37 3 15-17 15-53c-1-64 63-63 125-63 3-35-9-54-41-54-24 1-41 7-42 31l-33-3c5-37 33-52 76-52 45 0 72 20 72 64v82c-1 20 7 32 28 27v20c-31 9-61-2-59-35zM48-53c0 20 12 33 32 33 41-3 63-29 60-74-43 2-92-5-92 41zm25-158c8-23 27-35 38-54h36v5l-58 49H73" id="X"/><path d="M114-163C36-179 61-72 57 0H25l-1-190h30c1 12-1 29 2 39 6-27 23-49 58-41v29" id="Y"/><path d="M24-231v-30h32v30H24zM24 0v-190h32V0H24" id="Z"/><path d="M100-194c62-1 85 37 85 99 1 63-27 99-86 99S16-35 15-95c0-66 28-99 85-99zM99-20c44 1 53-31 53-75 0-43-8-75-51-75s-53 32-53 75 10 74 51 75" id="aa"/><g id="a"><use transform="matrix(0.05,0,0,0.05,0,0)" xlink:href="#U"/><use transform="matrix(0.05,0,0,0.05,12.950000000000001,0)" xlink:href="#V"/><use transform="matrix(0.05,0,0,0.05,21.950000000000003,0)" xlink:href="#W"/><use transform="matrix(0.05,0,0,0.05,31.950000000000003,0)" xlink:href="#X"/><use transform="matrix(0.05,0,0,0.05,41.95,0)" xlink:href="#Y"/><use transform="matrix(0.05,0,0,0.05,47.900000000000006,0)" xlink:href="#Z"/><use transform="matrix(0.05,0,0,0.05,51.85,0)" xlink:href="#aa"/></g><path d="M238-95c0 69-44 99-111 99C63 4 22-25 22-93v-155h51v151c-1 38 19 59 55 60 90 1 49-130 58-211h52v153" id="ab"/><path d="M137-138c1-29-70-34-71-4 15 46 118 7 119 86 1 83-164 76-172 9l43-7c4 19 20 25 44 25 33 8 57-30 24-41C81-84 22-81 20-136c-2-80 154-74 161-7" id="ac"/><path d="M85 4C-2 5 27-109 22-190h50c7 57-23 150 33 157 60-5 35-97 40-157h50l1 190h-47c-2-12 1-28-3-38-12 25-28 42-61 42" id="ad"/><path d="M133-34C117-15 103 5 69 4 32 3 11-16 11-54c-1-60 55-63 116-61 1-26-3-47-28-47-18 1-26 9-28 27l-52-2c7-38 36-58 82-57s74 22 75 68l1 82c-1 14 12 18 25 15v27c-30 8-71 5-69-32zm-48 3c29 0 43-24 42-57-32 0-66-3-65 30 0 17 8 27 23 27" id="ae"/><path d="M135-150c-39-12-60 13-60 57V0H25l-1-190h47c2 13-1 29 3 40 6-28 27-53 61-41v41" id="af"/><path d="M25-224v-37h50v37H25zM25 0v-190h50V0H25" id="ag"/><path d="M110-194c64 0 96 36 96 99 0 64-35 99-97 99-61 0-95-36-95-99 0-62 34-99 96-99zm-1 164c35 0 45-28 45-65 0-40-10-65-43-65-34 0-45 26-45 65 0 36 10 65 43 65" id="ah"/><g id="b"><use transform="matrix(0.05,0,0,0.05,0,0)" xlink:href="#ab"/><use transform="matrix(0.05,0,0,0.05,12.950000000000001,0)" xlink:href="#ac"/><use transform="matrix(0.05,0,0,0.05,22.950000000000003,0)" xlink:href="#ad"/><use transform="matrix(0.05,0,0,0.05,33.900000000000006,0)" xlink:href="#ae"/><use transform="matrix(0.05,0,0,0.05,43.900000000000006,0)" xlink:href="#af"/><use transform="matrix(0.05,0,0,0.05,50.900000000000006,0)" xlink:href="#ag"/><use transform="matrix(0.05,0,0,0.05,55.900000000000006,0)" xlink:href="#ah"/></g><path d="M16-82v-28h88v28H16" id="ai"/><use transform="matrix(0.05,0,0,0.05,0,0)" xlink:href="#ai" id="c"/><path d="M100-194c63 0 86 42 84 106H49c0 40 14 67 53 68 26 1 43-12 49-29l28 8c-11 28-37 45-77 45C44 4 14-33 15-96c1-61 26-98 85-98zm52 81c6-60-76-77-97-28-3 7-6 17-6 28h103" id="aj"/><path d="M210-169c-67 3-38 105-44 169h-31v-121c0-29-5-50-35-48C34-165 62-65 56 0H25l-1-190h30c1 10-1 24 2 32 10-44 99-50 107 0 11-21 27-35 58-36 85-2 47 119 55 194h-31v-121c0-29-5-49-35-48" id="ak"/><path d="M141-36C126-15 110 5 73 4 37 3 15-17 15-53c-1-64 63-63 125-63 3-35-9-54-41-54-24 1-41 7-42 31l-33-3c5-37 33-52 76-52 45 0 72 20 72 64v82c-1 20 7 32 28 27v20c-31 9-61-2-59-35zM48-53c0 20 12 33 32 33 41-3 63-29 60-74-43 2-92-5-92 41" id="al"/><path d="M24 0v-261h32V0H24" id="am"/><g id="d"><use transform="matrix(0.05,0,0,0.05,0,0)" xlink:href="#aj"/><use transform="matrix(0.05,0,0,0.05,10,0)" xlink:href="#ak"/><use transform="matrix(0.05,0,0,0.05,24.950000000000003,0)" xlink:href="#al"/><use transform="matrix(0.05,0,0,0.05,34.95,0)" xlink:href="#Z"/><use transform="matrix(0.05,0,0,0.05,38.900000000000006,0)" xlink:href="#am"/></g><path d="M33-154v-36h34v36H33zM33 0v-36h34V0H33" id="an"/><use transform="matrix(0.05,0,0,0.05,0,0)" xlink:href="#an" id="e"/><path d="M185-189c-5-48-123-54-124 2 14 75 158 14 163 119 3 78-121 87-175 55-17-10-28-26-33-46l33-7c5 56 141 63 141-1 0-78-155-14-162-118-5-82 145-84 179-34 5 7 8 16 11 25" id="ao"/><path d="M59-47c-2 24 18 29 38 22v24C64 9 27 4 27-40v-127H5v-23h24l9-43h21v43h35v23H59v120" id="ap"/><path d="M117-194c89-4 53 116 60 194h-32v-121c0-31-8-49-39-48C34-167 62-67 57 0H25l-1-190h30c1 10-1 24 2 32 11-22 29-35 61-36" id="aq"/><path d="M177-190C167-65 218 103 67 71c-23-6-38-20-44-43l32-5c15 47 100 32 89-28v-30C133-14 115 1 83 1 29 1 15-40 15-95c0-56 16-97 71-98 29-1 48 16 59 35 1-10 0-23 2-32h30zM94-22c36 0 50-32 50-73 0-42-14-75-50-75-39 0-46 34-46 75s6 73 46 73" id="ar"/><g id="f"><use transform="matrix(0.05,0,0,0.05,0,0)" xlink:href="#ao"/><use transform="matrix(0.05,0,0,0.05,12,0)" xlink:href="#ap"/><use transform="matrix(0.05,0,0,0.05,17,0)" xlink:href="#Y"/><use transform="matrix(0.05,0,0,0.05,22.95,0)" xlink:href="#Z"/><use transform="matrix(0.05,0,0,0.05,26.899999999999995,0)" xlink:href="#aq"/><use transform="matrix(0.05,0,0,0.05,36.9,0)" xlink:href="#ar"/></g><path d="M106-169C34-169 62-67 57 0H25v-261h32l-1 103c12-21 28-36 61-36 89 0 53 116 60 194h-32v-121c2-32-8-49-39-48" id="as"/><g id="g"><use transform="matrix(0.05,0,0,0.05,0,0)" xlink:href="#V"/><use transform="matrix(0.05,0,0,0.05,9,0)" xlink:href="#aj"/><use transform="matrix(0.05,0,0,0.05,19,0)" xlink:href="#aq"/><use transform="matrix(0.05,0,0,0.05,29,0)" xlink:href="#as"/><use transform="matrix(0.05,0,0,0.05,39,0)" xlink:href="#al"/></g><g id="h"><use transform="matrix(0.05,0,0,0.05,0,0)" xlink:href="#aq"/><use transform="matrix(0.05,0,0,0.05,10,0)" xlink:href="#aa"/><use transform="matrix(0.05,0,0,0.05,20,0)" xlink:href="#ak"/><use transform="matrix(0.05,0,0,0.05,34.95,0)" xlink:href="#aj"/></g><path d="M101-234c-31-9-42 10-38 44h38v23H63V0H32v-167H5v-23h27c-7-52 17-82 69-68v24" id="at"/><g id="i"><use transform="matrix(0.05,0,0,0.05,0,0)" xlink:href="#ap"/><use transform="matrix(0.05,0,0,0.05,5,0)" xlink:href="#aj"/><use transform="matrix(0.05,0,0,0.05,15,0)" xlink:href="#am"/><use transform="matrix(0.05,0,0,0.05,18.95,0)" xlink:href="#aj"/><use transform="matrix(0.05,0,0,0.05,28.950000000000003,0)" xlink:href="#at"/><use transform="matrix(0.05,0,0,0.05,33.95,0)" xlink:href="#aa"/><use transform="matrix(0.05,0,0,0.05,43.95,0)" xlink:href="#aq"/><use transform="matrix(0.05,0,0,0.05,53.95,0)" xlink:href="#aj"/><use transform="matrix(0.05,0,0,0.05,63.95,0)" xlink:href="#an"/></g><path d="M85-194c31 0 48 13 60 33l-1-100h32l1 261h-30c-2-10 0-23-3-31C134-8 116 4 85 4 32 4 16-35 15-94c0-66 23-100 70-100zm9 24c-40 0-46 34-46 75 0 40 6 74 45 74 42 0 51-32 51-76 0-42-9-74-50-73" id="au"/><path d="M96-169c-40 0-48 33-48 73s9 75 48 75c24 0 41-14 43-38l32 2c-6 37-31 61-74 61-59 0-76-41-82-99-10-93 101-131 147-64 4 7 5 14 7 22l-32 3c-4-21-16-35-41-35" id="av"/><g id="j"><use transform="matrix(0.05,0,0,0.05,0,0)" xlink:href="#aj"/><use transform="matrix(0.05,0,0,0.05,10,0)" xlink:href="#aq"/><use transform="matrix(0.05,0,0,0.05,20,0)" xlink:href="#au"/><use transform="matrix(0.05,0,0,0.05,30,0)" xlink:href="#aj"/><use transform="matrix(0.05,0,0,0.05,40,0)" xlink:href="#Y"/><use transform="matrix(0.05,0,0,0.05,45.95,0)" xlink:href="#aj"/><use transform="matrix(0.05,0,0,0.05,55.95,0)" xlink:href="#av"/><use transform="matrix(0.05,0,0,0.05,64.95,0)" xlink:href="#aa"/></g><g id="k"><use transform="matrix(0.05,0,0,0.05,0,0)" xlink:href="#ao"/><use transform="matrix(0.05,0,0,0.05,12,0)" xlink:href="#ap"/><use transform="matrix(0.05,0,0,0.05,17,0)" xlink:href="#Y"/><use transform="matrix(0.05,0,0,0.05,22.95,0)" xlink:href="#Z"/><use transform="matrix(0.05,0,0,0.05,26.899999999999995,0)" xlink:href="#aq"/><use transform="matrix(0.05,0,0,0.05,36.9,0)" xlink:href="#ar"/></g><path d="M24-248c93 1 206-16 204 79-1 75-69 88-152 82V0H24v-248zm52 121c47 0 100 7 100-41 0-47-54-39-100-39v80" id="aw"/><path d="M185-48c-13 30-37 53-82 52C43 2 14-33 14-96s30-98 90-98c62 0 83 45 84 108H66c0 31 8 55 39 56 18 0 30-7 34-22zm-45-69c5-46-57-63-70-21-2 6-4 13-4 21h74" id="ax"/><path d="M76-208v77h127v40H76V0H24v-248h183v40H76" id="ay"/><path d="M190-63c-7 42-38 67-86 67-59 0-84-38-90-98-12-110 154-137 174-36l-49 2c-2-19-15-32-35-32-30 0-35 28-38 64-6 74 65 87 74 30" id="az"/><g id="l"><use transform="matrix(0.05,0,0,0.05,0,0)" xlink:href="#aw"/><use transform="matrix(0.05,0,0,0.05,12,0)" xlink:href="#ax"/><use transform="matrix(0.05,0,0,0.05,22,0)" xlink:href="#ac"/><use transform="matrix(0.05,0,0,0.05,32,0)" xlink:href="#ac"/><use transform="matrix(0.05,0,0,0.05,42,0)" xlink:href="#ah"/><use transform="matrix(0.05,0,0,0.05,52.95,0)" xlink:href="#ae"/><use transform="matrix(0.05,0,0,0.05,62.95,0)" xlink:href="#ay"/><use transform="matrix(0.05,0,0,0.05,73.9,0)" xlink:href="#ag"/><use transform="matrix(0.05,0,0,0.05,78.9,0)" xlink:href="#ac"/><use transform="matrix(0.05,0,0,0.05,88.9,0)" xlink:href="#ag"/><use transform="matrix(0.05,0,0,0.05,93.9,0)" xlink:href="#az"/><use transform="matrix(0.05,0,0,0.05,103.9,0)" xlink:href="#ae"/></g><path d="M190 0L58-211 59 0H30v-248h39L202-35l-2-213h31V0h-41" id="aA"/><g id="m"><use transform="matrix(0.05,0,0,0.05,0,0)" xlink:href="#au"/><use transform="matrix(0.05,0,0,0.05,10,0)" xlink:href="#al"/><use transform="matrix(0.05,0,0,0.05,20,0)" xlink:href="#ap"/><use transform="matrix(0.05,0,0,0.05,25,0)" xlink:href="#al"/><use transform="matrix(0.05,0,0,0.05,35,0)" xlink:href="#aA"/><use transform="matrix(0.05,0,0,0.05,47.95,0)" xlink:href="#al"/><use transform="matrix(0.05,0,0,0.05,57.95,0)" xlink:href="#V"/><use transform="matrix(0.05,0,0,0.05,66.95,0)" xlink:href="#av"/><use transform="matrix(0.05,0,0,0.05,75.95,0)" xlink:href="#Z"/><use transform="matrix(0.05,0,0,0.05,79.9,0)" xlink:href="#ak"/><use transform="matrix(0.05,0,0,0.05,94.85000000000001,0)" xlink:href="#aj"/><use transform="matrix(0.05,0,0,0.05,104.85000000000001,0)" xlink:href="#aq"/><use transform="matrix(0.05,0,0,0.05,114.85000000000001,0)" xlink:href="#ap"/><use transform="matrix(0.05,0,0,0.05,119.85000000000001,0)" xlink:href="#aa"/></g><path d="M30-248c118-7 216 8 213 122C240-48 200 0 122 0H30v-248zM63-27c89 8 146-16 146-99s-60-101-146-95v194" id="aB"/><g id="n"><use transform="matrix(0.05,0,0,0.05,0,0)" xlink:href="#aB"/><use transform="matrix(0.05,0,0,0.05,12.950000000000001,0)" xlink:href="#al"/><use transform="matrix(0.05,0,0,0.05,22.950000000000003,0)" xlink:href="#ap"/><use transform="matrix(0.05,0,0,0.05,27.950000000000003,0)" xlink:href="#aj"/></g><path d="M140-251c80 0 125 45 125 126S219 4 139 4C58 4 15-44 15-125s44-126 125-126zm-1 214c52 0 73-35 73-88 0-50-21-86-72-86-52 0-73 35-73 86s22 88 72 88" id="aC"/><path d="M175 0L67-191c6 58 2 128 3 191H24v-248h59L193-55c-6-58-2-129-3-193h46V0h-61" id="aD"/><path d="M67-125c0 54 23 88 75 88 28 0 53-7 68-21v-34h-60v-39h108v91C232-14 192 4 140 4 58 4 20-42 15-125 8-236 126-280 215-234c19 10 29 26 37 47l-47 15c-11-23-29-39-63-39-53 1-75 33-75 86" id="aE"/><g id="o"><use transform="matrix(0.05,0,0,0.05,0,0)" xlink:href="#aC"/><use transform="matrix(0.05,0,0,0.05,14,0)" xlink:href="#aD"/><use transform="matrix(0.05,0,0,0.05,26.950000000000003,0)" xlink:href="#aE"/></g><path d="M140-251c81 0 123 46 123 126C263-46 219 4 140 4 59 4 17-45 17-125s42-126 123-126zm0 227c63 0 89-41 89-101s-29-99-89-99c-61 0-89 39-89 99S79-25 140-24" id="aF"/><path d="M143 4C61 4 22-44 18-125c-5-107 100-154 193-111 17 8 29 25 37 43l-32 9c-13-25-37-40-76-40-61 0-88 39-88 99 0 61 29 100 91 101 35 0 62-11 79-27v-45h-74v-28h105v86C228-13 192 4 143 4" id="aG"/><g id="p"><use transform="matrix(0.05,0,0,0.05,0,0)" xlink:href="#aq"/><use transform="matrix(0.05,0,0,0.05,10,0)" xlink:href="#aa"/><use transform="matrix(0.05,0,0,0.05,20,0)" xlink:href="#ak"/><use transform="matrix(0.05,0,0,0.05,34.95,0)" xlink:href="#aj"/><use transform="matrix(0.05,0,0,0.05,44.95,0)" xlink:href="#aF"/><use transform="matrix(0.05,0,0,0.05,58.95,0)" xlink:href="#aA"/><use transform="matrix(0.05,0,0,0.05,71.9,0)" xlink:href="#aG"/></g><g id="q"><use transform="matrix(0.05,0,0,0.05,0,0)" xlink:href="#au"/><use transform="matrix(0.05,0,0,0.05,10,0)" xlink:href="#aj"/><use transform="matrix(0.05,0,0,0.05,20,0)" xlink:href="#V"/><use transform="matrix(0.05,0,0,0.05,29,0)" xlink:href="#av"/><use transform="matrix(0.05,0,0,0.05,38,0)" xlink:href="#Y"/><use transform="matrix(0.05,0,0,0.05,43.95,0)" xlink:href="#Z"/><use transform="matrix(0.05,0,0,0.05,47.900000000000006,0)" xlink:href="#av"/><use transform="matrix(0.05,0,0,0.05,56.900000000000006,0)" xlink:href="#al"/><use transform="matrix(0.05,0,0,0.05,66.9,0)" xlink:href="#aa"/></g><path d="M63-220v92h138v28H63V0H30v-248h175v28H63" id="aH"/><g id="r"><use transform="matrix(0.05,0,0,0.05,0,0)" xlink:href="#au"/><use transform="matrix(0.05,0,0,0.05,10,0)" xlink:href="#al"/><use transform="matrix(0.05,0,0,0.05,20,0)" xlink:href="#ap"/><use transform="matrix(0.05,0,0,0.05,25,0)" xlink:href="#al"/><use transform="matrix(0.05,0,0,0.05,35,0)" xlink:href="#aH"/><use transform="matrix(0.05,0,0,0.05,45.95,0)" xlink:href="#W"/><use transform="matrix(0.05,0,0,0.05,55.95,0)" xlink:href="#aq"/><use transform="matrix(0.05,0,0,0.05,65.95,0)" xlink:href="#au"/><use transform="matrix(0.05,0,0,0.05,75.95,0)" xlink:href="#al"/><use transform="matrix(0.05,0,0,0.05,85.95,0)" xlink:href="#av"/><use transform="matrix(0.05,0,0,0.05,94.95,0)" xlink:href="#al"/><use transform="matrix(0.05,0,0,0.05,104.95,0)" xlink:href="#aa"/></g><path d="M30-248c87 1 191-15 191 75 0 78-77 80-158 76V0H30v-248zm33 125c57 0 124 11 124-50 0-59-68-47-124-48v98" id="aI"/><path d="M24-231v-30h32v30H24zM-9 49c24 4 33-6 33-30v-209h32V24c2 40-23 58-65 49V49" id="aJ"/><g id="s"><use transform="matrix(0.05,0,0,0.05,0,0)" xlink:href="#aI"/><use transform="matrix(0.05,0,0,0.05,12,0)" xlink:href="#Y"/><use transform="matrix(0.05,0,0,0.05,17.95,0)" xlink:href="#aa"/><use transform="matrix(0.05,0,0,0.05,27.950000000000003,0)" xlink:href="#aJ"/><use transform="matrix(0.05,0,0,0.05,31.899999999999995,0)" xlink:href="#aj"/><use transform="matrix(0.05,0,0,0.05,41.9,0)" xlink:href="#ap"/><use transform="matrix(0.05,0,0,0.05,46.9,0)" xlink:href="#aa"/><use transform="matrix(0.05,0,0,0.05,56.900000000000006,0)" xlink:href="#V"/></g><path d="M25-224v-37h50v37H25zM75 22c2 45-34 59-81 51V38c22 5 31-5 31-27v-201h50V22" id="aK"/><path d="M115-3C79 11 28 4 28-45v-112H4v-33h27l15-45h31v45h36v33H77v99c-1 23 16 31 38 25v30" id="aL"/><path d="M169-182c-1-43-94-46-97-3 18 66 151 10 154 114 3 95-165 93-204 36-6-8-10-19-12-30l50-8c3 46 112 56 116 5-17-69-150-10-154-114-4-87 153-88 188-35 5 8 8 18 10 28" id="aM"/><path d="M25 0v-261h50V0H25" id="aN"/><g id="t"><use transform="matrix(0.05,0,0,0.05,0,0)" xlink:href="#aw"/><use transform="matrix(0.05,0,0,0.05,12,0)" xlink:href="#af"/><use transform="matrix(0.05,0,0,0.05,19,0)" xlink:href="#ah"/><use transform="matrix(0.05,0,0,0.05,29.950000000000003,0)" xlink:href="#aK"/><use transform="matrix(0.05,0,0,0.05,34.95,0)" xlink:href="#ax"/><use transform="matrix(0.05,0,0,0.05,44.95,0)" xlink:href="#aL"/><use transform="matrix(0.05,0,0,0.05,50.900000000000006,0)" xlink:href="#ah"/><use transform="matrix(0.05,0,0,0.05,61.85,0)" xlink:href="#aM"/><use transform="matrix(0.05,0,0,0.05,73.85000000000001,0)" xlink:href="#ah"/><use transform="matrix(0.05,0,0,0.05,84.80000000000001,0)" xlink:href="#az"/><use transform="matrix(0.05,0,0,0.05,94.80000000000001,0)" xlink:href="#ag"/><use transform="matrix(0.05,0,0,0.05,99.80000000000001,0)" xlink:href="#ae"/><use transform="matrix(0.05,0,0,0.05,109.80000000000001,0)" xlink:href="#aN"/></g><path d="M33 0v-248h34V0H33" id="aO"/><g id="u"><use transform="matrix(0.05,0,0,0.05,0,0)" xlink:href="#au"/><use transform="matrix(0.05,0,0,0.05,10,0)" xlink:href="#al"/><use transform="matrix(0.05,0,0,0.05,20,0)" xlink:href="#ap"/><use transform="matrix(0.05,0,0,0.05,25,0)" xlink:href="#al"/><use transform="matrix(0.05,0,0,0.05,35,0)" xlink:href="#aO"/><use transform="matrix(0.05,0,0,0.05,40,0)" xlink:href="#aq"/><use transform="matrix(0.05,0,0,0.05,50,0)" xlink:href="#Z"/><use transform="matrix(0.05,0,0,0.05,53.95,0)" xlink:href="#av"/><use transform="matrix(0.05,0,0,0.05,62.95,0)" xlink:href="#Z"/><use transform="matrix(0.05,0,0,0.05,66.9,0)" xlink:href="#aa"/></g><g id="v"><use transform="matrix(0.05,0,0,0.05,0,0)" xlink:href="#aB"/><use transform="matrix(0.05,0,0,0.05,12.950000000000001,0)" xlink:href="#al"/><use transform="matrix(0.05,0,0,0.05,22.950000000000003,0)" xlink:href="#ap"/><use transform="matrix(0.05,0,0,0.05,27.950000000000003,0)" xlink:href="#aj"/></g><g id="w"><use transform="matrix(0.05,0,0,0.05,0,0)" xlink:href="#au"/><use transform="matrix(0.05,0,0,0.05,10,0)" xlink:href="#al"/><use transform="matrix(0.05,0,0,0.05,20,0)" xlink:href="#ap"/><use transform="matrix(0.05,0,0,0.05,25,0)" xlink:href="#al"/><use transform="matrix(0.05,0,0,0.05,35,0)" xlink:href="#aH"/><use transform="matrix(0.05,0,0,0.05,45.95,0)" xlink:href="#Z"/><use transform="matrix(0.05,0,0,0.05,49.900000000000006,0)" xlink:href="#ak"/><use transform="matrix(0.05,0,0,0.05,64.85000000000001,0)" xlink:href="#an"/></g><g id="x"><use transform="matrix(0.05,0,0,0.05,0,0)" xlink:href="#V"/><use transform="matrix(0.05,0,0,0.05,9,0)" xlink:href="#ap"/><use transform="matrix(0.05,0,0,0.05,14,0)" xlink:href="#al"/><use transform="matrix(0.05,0,0,0.05,24,0)" xlink:href="#ap"/><use transform="matrix(0.05,0,0,0.05,29,0)" xlink:href="#W"/><use transform="matrix(0.05,0,0,0.05,39,0)" xlink:href="#V"/></g><path d="M24 0v-248h195v40H76v63h132v40H76v65h150V0H24" id="aP"/><path d="M128 0H69L1-190h53L99-40l48-150h52" id="aQ"/><path d="M135-194c87-1 58 113 63 194h-50c-7-57 23-157-34-157-59 0-34 97-39 157H25l-1-190h47c2 12-1 28 3 38 12-26 28-41 61-42" id="aR"/><g id="y"><use transform="matrix(0.05,0,0,0.05,0,0)" xlink:href="#aP"/><use transform="matrix(0.05,0,0,0.05,12,0)" xlink:href="#aQ"/><use transform="matrix(0.05,0,0,0.05,22,0)" xlink:href="#ax"/><use transform="matrix(0.05,0,0,0.05,32,0)" xlink:href="#aR"/><use transform="matrix(0.05,0,0,0.05,42.95,0)" xlink:href="#aL"/><use transform="matrix(0.05,0,0,0.05,48.900000000000006,0)" xlink:href="#ah"/></g><path d="M197 0v-115H63V0H30v-248h33v105h134v-105h34V0h-34" id="aS"/><g id="z"><use transform="matrix(0.05,0,0,0.05,0,0)" xlink:href="#au"/><use transform="matrix(0.05,0,0,0.05,10,0)" xlink:href="#al"/><use transform="matrix(0.05,0,0,0.05,20,0)" xlink:href="#ap"/><use transform="matrix(0.05,0,0,0.05,25,0)" xlink:href="#al"/><use transform="matrix(0.05,0,0,0.05,35,0)" xlink:href="#aS"/><use transform="matrix(0.05,0,0,0.05,47.95,0)" xlink:href="#aa"/><use transform="matrix(0.05,0,0,0.05,57.95,0)" xlink:href="#Y"/><use transform="matrix(0.05,0,0,0.05,63.900000000000006,0)" xlink:href="#al"/><use transform="matrix(0.05,0,0,0.05,73.9,0)" xlink:href="#Y"/><use transform="matrix(0.05,0,0,0.05,79.85000000000001,0)" xlink:href="#Z"/><use transform="matrix(0.05,0,0,0.05,83.80000000000001,0)" xlink:href="#aa"/></g><path d="M108 0H70L1-190h34L89-25l56-165h34" id="aT"/><g id="A"><use transform="matrix(0.05,0,0,0.05,0,0)" xlink:href="#aT"/><use transform="matrix(0.05,0,0,0.05,9,0)" xlink:href="#aa"/><use transform="matrix(0.05,0,0,0.05,19,0)" xlink:href="#am"/><use transform="matrix(0.05,0,0,0.05,22.95,0)" xlink:href="#W"/><use transform="matrix(0.05,0,0,0.05,32.95,0)" xlink:href="#aq"/><use transform="matrix(0.05,0,0,0.05,42.95,0)" xlink:href="#ap"/><use transform="matrix(0.05,0,0,0.05,47.95,0)" xlink:href="#al"/><use transform="matrix(0.05,0,0,0.05,57.95,0)" xlink:href="#Y"/><use transform="matrix(0.05,0,0,0.05,63.900000000000006,0)" xlink:href="#Z"/><use transform="matrix(0.05,0,0,0.05,67.85000000000001,0)" xlink:href="#aa"/><use transform="matrix(0.05,0,0,0.05,77.85000000000001,0)" xlink:href="#V"/></g><path d="M26 75v-336h71v23H56V52h41v23H26" id="aU"/><g id="B"><use transform="matrix(0.05,0,0,0.05,0,0)" xlink:href="#ao"/><use transform="matrix(0.05,0,0,0.05,12,0)" xlink:href="#ap"/><use transform="matrix(0.05,0,0,0.05,17,0)" xlink:href="#Y"/><use transform="matrix(0.05,0,0,0.05,22.95,0)" xlink:href="#Z"/><use transform="matrix(0.05,0,0,0.05,26.899999999999995,0)" xlink:href="#aq"/><use transform="matrix(0.05,0,0,0.05,36.9,0)" xlink:href="#ar"/><use transform="matrix(0.05,0,0,0.05,46.9,0)" xlink:href="#aU"/></g><path d="M3 75V52h41v-290H3v-23h71V75H3" id="aV"/><use transform="matrix(0.05,0,0,0.05,0,0)" xlink:href="#aV" id="C"/><path d="M147 0H94L2-248h55l64 206c17-72 42-137 63-206h54" id="aW"/><g id="D"><use transform="matrix(0.05,0,0,0.05,0,0)" xlink:href="#aW"/><use transform="matrix(0.05,0,0,0.05,10.65,0)" xlink:href="#ah"/><use transform="matrix(0.05,0,0,0.05,21.6,0)" xlink:href="#aN"/><use transform="matrix(0.05,0,0,0.05,26.6,0)" xlink:href="#ad"/><use transform="matrix(0.05,0,0,0.05,37.550000000000004,0)" xlink:href="#aR"/><use transform="matrix(0.05,0,0,0.05,48.50000000000001,0)" xlink:href="#aL"/><use transform="matrix(0.05,0,0,0.05,54.45000000000002,0)" xlink:href="#ae"/><use transform="matrix(0.05,0,0,0.05,64.45000000000002,0)" xlink:href="#af"/><use transform="matrix(0.05,0,0,0.05,71.45000000000002,0)" xlink:href="#ag"/><use transform="matrix(0.05,0,0,0.05,76.45000000000002,0)" xlink:href="#ah"/></g><path d="M67-125c0 53 21 87 73 88 37 1 54-22 65-47l45 17C233-25 199 4 140 4 58 4 20-42 15-125 8-235 124-281 211-232c18 10 29 29 36 50l-46 12c-8-25-30-41-62-41-52 0-71 34-72 86" id="aX"/><g id="F"><use transform="matrix(0.05,0,0,0.05,0,0)" xlink:href="#aX"/><use transform="matrix(0.05,0,0,0.05,12.950000000000001,0)" xlink:href="#ah"/><use transform="matrix(0.05,0,0,0.05,23.900000000000002,0)" xlink:href="#aR"/><use transform="matrix(0.05,0,0,0.05,34.85,0)" xlink:href="#aQ"/><use transform="matrix(0.05,0,0,0.05,44.85,0)" xlink:href="#ag"/><use transform="matrix(0.05,0,0,0.05,49.85,0)" xlink:href="#aL"/><use transform="matrix(0.05,0,0,0.05,55.800000000000004,0)" xlink:href="#ax"/></g><path d="M137 0h-34L2-248h35l83 218 83-218h36" id="aY"/><g id="G"><use transform="matrix(0.05,0,0,0.05,0,0)" xlink:href="#aj"/><use transform="matrix(0.05,0,0,0.05,10,0)" xlink:href="#ak"/><use transform="matrix(0.05,0,0,0.05,24.950000000000003,0)" xlink:href="#al"/><use transform="matrix(0.05,0,0,0.05,34.95,0)" xlink:href="#Z"/><use transform="matrix(0.05,0,0,0.05,38.900000000000006,0)" xlink:href="#am"/><use transform="matrix(0.05,0,0,0.05,42.85000000000001,0)" xlink:href="#aY"/><use transform="matrix(0.05,0,0,0.05,53.85,0)" xlink:href="#aa"/><use transform="matrix(0.05,0,0,0.05,63.85,0)" xlink:href="#am"/><use transform="matrix(0.05,0,0,0.05,67.80000000000001,0)" xlink:href="#W"/><use transform="matrix(0.05,0,0,0.05,77.80000000000001,0)" xlink:href="#aq"/><use transform="matrix(0.05,0,0,0.05,87.80000000000001,0)" xlink:href="#ap"/><use transform="matrix(0.05,0,0,0.05,92.80000000000001,0)" xlink:href="#al"/><use transform="matrix(0.05,0,0,0.05,102.80000000000001,0)" xlink:href="#Y"/><use transform="matrix(0.05,0,0,0.05,108.75,0)" xlink:href="#Z"/><use transform="matrix(0.05,0,0,0.05,112.7,0)" xlink:href="#aa"/></g><path d="M212-179c-10-28-35-45-73-45-59 0-87 40-87 99 0 60 29 101 89 101 43 0 62-24 78-52l27 14C228-24 195 4 139 4 59 4 22-46 18-125c-6-104 99-153 187-111 19 9 31 26 39 46" id="aZ"/><path d="M96-169c-40 0-48 33-48 73s9 75 48 75c24 0 41-14 43-38l32 2c-6 37-31 61-74 61-59 0-76-41-82-99-10-93 101-131 147-64 4 7 5 14 7 22l-32 3c-4-21-16-35-41-35zm3 187c19-1 33 8 33 26 0 31-30 33-64 32V58c18 2 39 4 41-13 1-15-18-13-34-13L87 0h19" id="ba"/><path d="M141-36C126-15 110 5 73 4 37 3 15-17 15-53c-1-64 63-63 125-63 3-35-9-54-41-54-24 1-41 7-42 31l-33-3c5-37 33-52 76-52 45 0 72 20 72 64v82c-1 20 7 32 28 27v20c-31 9-61-2-59-35zM48-53c0 20 12 33 32 33 41-3 63-29 60-74-43 2-92-5-92 41zm117-205c-3 23-9 48-36 47-26-1-65-44-74 0H39c4-23 8-48 36-47s64 44 74 0h16" id="bb"/><g id="H"><use transform="matrix(0.05,0,0,0.05,0,0)" xlink:href="#aZ"/><use transform="matrix(0.05,0,0,0.05,12.950000000000001,0)" xlink:href="#aa"/><use transform="matrix(0.05,0,0,0.05,22.950000000000003,0)" xlink:href="#ak"/><use transform="matrix(0.05,0,0,0.05,37.900000000000006,0)" xlink:href="#W"/><use transform="matrix(0.05,0,0,0.05,47.900000000000006,0)" xlink:href="#aq"/><use transform="matrix(0.05,0,0,0.05,57.900000000000006,0)" xlink:href="#Z"/><use transform="matrix(0.05,0,0,0.05,61.85,0)" xlink:href="#av"/><use transform="matrix(0.05,0,0,0.05,70.85000000000001,0)" xlink:href="#al"/><use transform="matrix(0.05,0,0,0.05,80.85000000000001,0)" xlink:href="#ba"/><use transform="matrix(0.05,0,0,0.05,89.85000000000001,0)" xlink:href="#bb"/><use transform="matrix(0.05,0,0,0.05,99.85000000000001,0)" xlink:href="#aa"/></g><path d="M230 0l2-204L168 0h-37L68-204 70 0H24v-248h70l56 185 57-185h69V0h-46" id="bc"/><path d="M195-6C206 82 75 100 31 46c-4-6-6-13-8-21l49-6c3 16 16 24 34 25 40 0 42-37 40-79-11 22-30 35-61 35-53 0-70-43-70-97 0-56 18-96 73-97 30 0 46 14 59 34l2-30h47zm-90-29c32 0 41-27 41-63 0-35-9-62-40-62-32 0-39 29-40 63 0 36 9 62 39 62" id="bd"/><path d="M220-157c-53 9-28 100-34 157h-49v-107c1-27-5-49-29-50C55-147 81-57 75 0H25l-1-190h47c2 12-1 28 3 38 10-53 101-56 108 0 13-22 24-43 59-42 82 1 51 116 57 194h-49v-107c-1-25-5-48-29-50" id="be"/><g id="I"><use transform="matrix(0.05,0,0,0.05,0,0)" xlink:href="#bc"/><use transform="matrix(0.05,0,0,0.05,14.950000000000001,0)" xlink:href="#ax"/><use transform="matrix(0.05,0,0,0.05,24.950000000000003,0)" xlink:href="#aR"/><use transform="matrix(0.05,0,0,0.05,35.900000000000006,0)" xlink:href="#ac"/><use transform="matrix(0.05,0,0,0.05,45.900000000000006,0)" xlink:href="#ae"/><use transform="matrix(0.05,0,0,0.05,55.900000000000006,0)" xlink:href="#bd"/><use transform="matrix(0.05,0,0,0.05,66.85000000000001,0)" xlink:href="#ax"/><use transform="matrix(0.05,0,0,0.05,76.85000000000001,0)" xlink:href="#be"/></g><g id="J"><use transform="matrix(0.05,0,0,0.05,0,0)" xlink:href="#Y"/><use transform="matrix(0.05,0,0,0.05,5.95,0)" xlink:href="#aj"/><use transform="matrix(0.05,0,0,0.05,15.949999999999998,0)" xlink:href="#ak"/><use transform="matrix(0.05,0,0,0.05,30.899999999999995,0)" xlink:href="#aj"/><use transform="matrix(0.05,0,0,0.05,40.9,0)" xlink:href="#ap"/><use transform="matrix(0.05,0,0,0.05,45.9,0)" xlink:href="#aj"/><use transform="matrix(0.05,0,0,0.05,55.900000000000006,0)" xlink:href="#aq"/><use transform="matrix(0.05,0,0,0.05,65.9,0)" xlink:href="#ap"/><use transform="matrix(0.05,0,0,0.05,70.9,0)" xlink:href="#aj"/></g><g id="K"><use transform="matrix(0.05,0,0,0.05,0,0)" xlink:href="#au"/><use transform="matrix(0.05,0,0,0.05,10,0)" xlink:href="#aj"/><use transform="matrix(0.05,0,0,0.05,20,0)" xlink:href="#V"/><use transform="matrix(0.05,0,0,0.05,29,0)" xlink:href="#ap"/><use transform="matrix(0.05,0,0,0.05,34,0)" xlink:href="#Z"/><use transform="matrix(0.05,0,0,0.05,37.95,0)" xlink:href="#aq"/><use transform="matrix(0.05,0,0,0.05,47.95,0)" xlink:href="#al"/><use transform="matrix(0.05,0,0,0.05,57.95,0)" xlink:href="#ap"/><use transform="matrix(0.05,0,0,0.05,62.95,0)" xlink:href="#al"/><use transform="matrix(0.05,0,0,0.05,72.95,0)" xlink:href="#Y"/><use transform="matrix(0.05,0,0,0.05,78.9,0)" xlink:href="#Z"/><use transform="matrix(0.05,0,0,0.05,82.85000000000001,0)" xlink:href="#aa"/></g><g id="L"><use transform="matrix(0.05,0,0,0.05,0,0)" xlink:href="#av"/><use transform="matrix(0.05,0,0,0.05,9,0)" xlink:href="#aa"/><use transform="matrix(0.05,0,0,0.05,19,0)" xlink:href="#aq"/><use transform="matrix(0.05,0,0,0.05,29,0)" xlink:href="#ap"/><use transform="matrix(0.05,0,0,0.05,34,0)" xlink:href="#aj"/><use transform="matrix(0.05,0,0,0.05,44,0)" xlink:href="#W"/><use transform="matrix(0.05,0,0,0.05,54,0)" xlink:href="#au"/><use transform="matrix(0.05,0,0,0.05,64,0)" xlink:href="#aa"/></g><path d="M121-226c-27-7-43 5-38 36h38v33H83V0H34v-157H6v-33h28c-9-59 32-81 87-68v32" id="bf"/><g id="M"><use transform="matrix(0.05,0,0,0.05,0,0)" xlink:href="#aD"/><use transform="matrix(0.05,0,0,0.05,12.950000000000001,0)" xlink:href="#ah"/><use transform="matrix(0.05,0,0,0.05,23.900000000000002,0)" xlink:href="#aL"/><use transform="matrix(0.05,0,0,0.05,29.85,0)" xlink:href="#ag"/><use transform="matrix(0.05,0,0,0.05,34.85,0)" xlink:href="#bf"/><use transform="matrix(0.05,0,0,0.05,40.800000000000004,0)" xlink:href="#ag"/><use transform="matrix(0.05,0,0,0.05,45.800000000000004,0)" xlink:href="#az"/><use transform="matrix(0.05,0,0,0.05,55.800000000000004,0)" xlink:href="#ae"/><use transform="matrix(0.05,0,0,0.05,65.80000000000001,0)" xlink:href="#az"/><use transform="matrix(0.05,0,0,0.05,75.80000000000001,0)" xlink:href="#ae"/><use transform="matrix(0.05,0,0,0.05,85.80000000000001,0)" xlink:href="#ah"/></g><path d="M115-194c55 1 70 41 70 98S169 2 115 4C84 4 66-9 55-30l1 105H24l-1-265h31l2 30c10-21 28-34 59-34zm-8 174c40 0 45-34 45-75s-6-73-45-74c-42 0-51 32-51 76 0 43 10 73 51 73" id="bg"/><g id="N"><use transform="matrix(0.05,0,0,0.05,0,0)" xlink:href="#ap"/><use transform="matrix(0.05,0,0,0.05,5,0)" xlink:href="#Z"/><use transform="matrix(0.05,0,0,0.05,8.95,0)" xlink:href="#bg"/><use transform="matrix(0.05,0,0,0.05,18.95,0)" xlink:href="#aa"/></g><path d="M205 0l-28-72H64L36 0H1l101-248h38L239 0h-34zm-38-99l-47-123c-12 45-31 82-46 123h93" id="bh"/><g id="O"><use transform="matrix(0.05,0,0,0.05,0,0)" xlink:href="#bh"/><use transform="matrix(0.05,0,0,0.05,12,0)" xlink:href="#W"/><use transform="matrix(0.05,0,0,0.05,22,0)" xlink:href="#ap"/><use transform="matrix(0.05,0,0,0.05,27,0)" xlink:href="#aj"/><use transform="matrix(0.05,0,0,0.05,37,0)" xlink:href="#aq"/><use transform="matrix(0.05,0,0,0.05,47,0)" xlink:href="#ap"/><use transform="matrix(0.05,0,0,0.05,52,0)" xlink:href="#Z"/><use transform="matrix(0.05,0,0,0.05,55.95,0)" xlink:href="#av"/><use transform="matrix(0.05,0,0,0.05,64.95,0)" xlink:href="#al"/><use transform="matrix(0.05,0,0,0.05,74.95,0)" xlink:href="#ba"/><use transform="matrix(0.05,0,0,0.05,83.95,0)" xlink:href="#bb"/><use transform="matrix(0.05,0,0,0.05,93.95,0)" xlink:href="#aa"/></g><path d="M24 0v-248h52v208h133V0H24" id="bi"/><g id="P"><use transform="matrix(0.05,0,0,0.05,0,0)" xlink:href="#bi"/><use transform="matrix(0.05,0,0,0.05,10.950000000000001,0)" xlink:href="#ah"/><use transform="matrix(0.05,0,0,0.05,21.900000000000002,0)" xlink:href="#bd"/><use transform="matrix(0.05,0,0,0.05,32.85,0)" xlink:href="#ag"/><use transform="matrix(0.05,0,0,0.05,37.85,0)" xlink:href="#aR"/></g><path d="M240-174c0 40-23 61-54 70L253 0h-59l-57-94H76V0H24v-248c93 4 217-23 216 74zM76-134c48-2 112 12 112-38 0-48-66-32-112-35v73" id="bj"/><path d="M135-194c53 0 70 44 70 98 0 56-19 98-73 100-31 1-45-17-59-34 3 33 2 69 2 105H25l-1-265h48c2 10 0 23 3 31 11-24 29-35 60-35zM114-30c33 0 39-31 40-66 0-38-9-64-40-64-56 0-55 130 0 130" id="bk"/><path d="M114-157C55-157 80-60 75 0H25v-261h50l-1 109c12-26 28-41 61-42 86-1 58 113 63 194h-50c-7-57 23-157-34-157" id="bl"/><g id="Q"><use transform="matrix(0.05,0,0,0.05,0,0)" xlink:href="#bj"/><use transform="matrix(0.05,0,0,0.05,12.950000000000001,0)" xlink:href="#ax"/><use transform="matrix(0.05,0,0,0.05,22.950000000000003,0)" xlink:href="#az"/><use transform="matrix(0.05,0,0,0.05,32.95,0)" xlink:href="#ad"/><use transform="matrix(0.05,0,0,0.05,43.900000000000006,0)" xlink:href="#bk"/><use transform="matrix(0.05,0,0,0.05,54.85,0)" xlink:href="#ax"/><use transform="matrix(0.05,0,0,0.05,64.85000000000001,0)" xlink:href="#af"/><use transform="matrix(0.05,0,0,0.05,71.85000000000001,0)" xlink:href="#ae"/><use transform="matrix(0.05,0,0,0.05,81.85000000000001,0)" xlink:href="#az"/><use transform="matrix(0.05,0,0,0.05,91.85000000000001,0)" xlink:href="#ae"/><use transform="matrix(0.05,0,0,0.05,101.85000000000001,0)" xlink:href="#ah"/><use transform="matrix(0.05,0,0,0.05,112.80000000000001,0)" xlink:href="#aM"/><use transform="matrix(0.05,0,0,0.05,124.80000000000001,0)" xlink:href="#ax"/><use transform="matrix(0.05,0,0,0.05,134.8,0)" xlink:href="#aR"/><use transform="matrix(0.05,0,0,0.05,145.75,0)" xlink:href="#bl"/><use transform="matrix(0.05,0,0,0.05,156.7,0)" xlink:href="#ae"/></g><path d="M88-194c31-1 46 15 58 34l-1-101h50l1 261h-48c-2-10 0-23-3-31C134-8 116 4 84 4 32 4 16-41 15-95c0-56 19-97 73-99zm17 164c33 0 40-30 41-66 1-37-9-64-41-64s-38 30-39 65c0 43 13 65 39 65" id="bm"/><g id="R"><use transform="matrix(0.05,0,0,0.05,0,0)" xlink:href="#aX"/><use transform="matrix(0.05,0,0,0.05,12.950000000000001,0)" xlink:href="#ae"/><use transform="matrix(0.05,0,0,0.05,22.950000000000003,0)" xlink:href="#bm"/><use transform="matrix(0.05,0,0,0.05,33.900000000000006,0)" xlink:href="#ae"/><use transform="matrix(0.05,0,0,0.05,43.900000000000006,0)" xlink:href="#ac"/><use transform="matrix(0.05,0,0,0.05,53.900000000000006,0)" xlink:href="#aL"/><use transform="matrix(0.05,0,0,0.05,59.85,0)" xlink:href="#af"/><use transform="matrix(0.05,0,0,0.05,66.85000000000001,0)" xlink:href="#ah"/><use transform="matrix(0.05,0,0,0.05,77.80000000000001,0)" xlink:href="#ab"/><use transform="matrix(0.05,0,0,0.05,90.75000000000001,0)" xlink:href="#ac"/><use transform="matrix(0.05,0,0,0.05,100.75000000000001,0)" xlink:href="#ad"/><use transform="matrix(0.05,0,0,0.05,111.7,0)" xlink:href="#ae"/><use transform="matrix(0.05,0,0,0.05,121.7,0)" xlink:href="#af"/><use transform="matrix(0.05,0,0,0.05,128.70000000000002,0)" xlink:href="#ag"/><use transform="matrix(0.05,0,0,0.05,133.70000000000002,0)" xlink:href="#ah"/></g><use transform="matrix(0.05,0,0,0.05,0,0)" xlink:href="#aq" id="S"/><path d="M27 0v-27h64v-190l-56 39v-29l58-41h29v221h61V0H27" id="bn"/><use transform="matrix(0.05,0,0,0.05,0,0)" xlink:href="#bn" id="T"/></defs></g></svg>